<?xml version="1.0" encoding="iso-8859-1"?>
<!-- Generator: Adobe Illustrator 19.0.0, SVG Export Plug-In . SVG Version: 6.00 Build 0)  -->
<svg version="1.1" id="Layer_1" xmlns="http://www.w3.org/2000/svg" xmlns:xlink="http://www.w3.org/1999/xlink" x="0px" y="0px"
	 viewBox="0 0 511.992 511.992" style="enable-background:new 0 0 511.992 511.992;" xml:space="preserve">
<circle style="fill:#FF873D;" cx="255.996" cy="255.996" r="255.996"/>
<path style="fill:#E37936;" d="M508.785,296.576c-19.288,121.083-123.467,213.846-249.616,215.381L132.677,385.466l15.019-11.512
	l-47.215-47.215l248.203-190.264L508.785,296.576z"/>
<g>
	<rect x="249.942" y="239.346" style="fill:#FFD630;" width="12.097" height="147.1"/>
	<rect x="132.681" y="373.368" style="fill:#FFD630;" width="246.64" height="12.097"/>
</g>
<circle style="fill:#00CC96;" cx="255.996" cy="379.421" r="19.525"/>
<path style="fill:#07B587;" d="M255.997,359.891c10.783,0,19.525,8.743,19.525,19.525c0,10.7-8.606,19.392-19.274,19.522h-0.252
	v-39.051L255.997,359.891L255.997,359.891z"/>
<path style="fill:#F7F7F8;" d="M134.091,238.331c2.165,0,4.302,0.137,6.398,0.399c-1.658-5.624-2.558-11.577-2.558-17.742
	c0-34.598,28.045-62.643,62.64-62.643c6.341,0,12.462,0.946,18.23,2.701c12.344-28.246,40.525-47.991,73.322-47.991
	c44.175,0,79.989,35.81,79.989,79.986c0,14.383-3.798,27.873-10.44,39.536c4.046-0.968,8.268-1.478,12.613-1.478
	c29.937,0,54.21,24.269,54.21,54.21c0,26.901-19.594,49.218-45.284,53.48v0.733h-8.926H134.087
	c-27.945,0-50.592-22.651-50.592-50.592c0-27.945,22.651-50.595,50.592-50.595L134.091,238.331z"/>
<g>
</g>
<g>
</g>
<g>
</g>
<g>
</g>
<g>
</g>
<g>
</g>
<g>
</g>
<g>
</g>
<g>
</g>
<g>
</g>
<g>
</g>
<g>
</g>
<g>
</g>
<g>
</g>
<g>
</g>
</svg>
